<svg xmlns="http://www.w3.org/2000/svg" width="60" height="60" viewBox="0 0 60 60">
  <defs>
    <style>
      .cls-1 {
        fill: #ee3a08;
      }
    </style>
  </defs>
  <g id="all" transform="translate(0 0)">
    <g id="Group_2" data-name="Group 2" transform="translate(49.635 29.412)">
      <g id="Group_1" data-name="Group 1">
        <circle id="Ellipse_1" data-name="Ellipse 1" class="cls-1" cx="1.176" cy="1.176" r="1.176"/>
      </g>
    </g>
    <g id="Group_4" data-name="Group 4" transform="translate(7.869 29.412)">
      <g id="Group_3" data-name="Group 3">
        <circle id="Ellipse_2" data-name="Ellipse 2" class="cls-1" cx="1.176" cy="1.176" r="1.176"/>
      </g>
    </g>
    <g id="Group_6" data-name="Group 6" transform="translate(29.046 50)">
      <g id="Group_5" data-name="Group 5">
        <circle id="Ellipse_3" data-name="Ellipse 3" class="cls-1" cx="1.176" cy="1.176" r="1.176"/>
      </g>
    </g>
    <g id="Group_8" data-name="Group 8" transform="translate(18.458 21.882)">
      <g id="Group_7" data-name="Group 7">
        <path id="Path_1" data-name="Path 1" class="cls-1" d="M135.962,164.565h-7.228a18.96,18.96,0,0,1,3.2-3.409c2.33-2.134,4.739-4.341,4.739-7.006a5.3,5.3,0,0,0-5.349-5.349c-2.682,0-5.814,1.522-5.814,5.813a1.176,1.176,0,1,0,2.353,0,3.174,3.174,0,0,1,3.461-3.46,2.977,2.977,0,0,1,3,3c0,1.631-2.112,3.565-3.976,5.271-2.248,2.058-4.371,4-4.371,6.321v1.176h9.986a1.176,1.176,0,1,0,0-2.353Z" transform="translate(-125.512 -148.8)"/>
      </g>
    </g>
    <g id="Group_10" data-name="Group 10" transform="translate(30 21.765)">
      <g id="Group_9" data-name="Group 9">
        <path id="Path_2" data-name="Path 2" class="cls-1" d="M215.764,159.175h-2.353v-10a1.176,1.176,0,0,0-2.171-.628l-7.059,11.176a1.176,1.176,0,0,0,.995,1.8h5.882v3.529a1.176,1.176,0,1,0,2.353,0v-3.529h2.353a1.176,1.176,0,0,0,0-2.353Zm-4.706,0H207.31l3.748-5.934Z" transform="translate(-203.999 -147.999)"/>
      </g>
    </g>
    <g id="Group_12" data-name="Group 12" transform="translate(0 0)">
      <g id="Group_11" data-name="Group 11" transform="translate(0 0)">
        <path id="Path_3" data-name="Path 3" class="cls-1" d="M58.235,28.235A1.765,1.765,0,0,0,56.471,30,26.471,26.471,0,1,1,30,3.529,26.215,26.215,0,0,1,46.2,9.064a1.765,1.765,0,0,0,2.162-2.789A29.711,29.711,0,0,0,30,0,30,30,0,1,0,60,30,1.765,1.765,0,0,0,58.235,28.235Z" transform="translate(0 0)"/>
      </g>
    </g>
    <g id="Group_14" data-name="Group 14" transform="translate(40 0.505)">
      <g id="Group_13" data-name="Group 13">
        <path id="Path_4" data-name="Path 4" class="cls-1" d="M282,3.432A1.765,1.765,0,0,0,280.235,5.2v6.554h-6.471a1.765,1.765,0,1,0,0,3.529H282a1.765,1.765,0,0,0,1.765-1.765V5.2A1.765,1.765,0,0,0,282,3.432Z" transform="translate(-272 -3.432)"/>
      </g>
    </g>
    <g id="Group_16" data-name="Group 16" transform="translate(29.046 8.824)">
      <g id="Group_15" data-name="Group 15">
        <circle id="Ellipse_4" data-name="Ellipse 4" class="cls-1" cx="1.176" cy="1.176" r="1.176"/>
      </g>
    </g>
  </g>
</svg>
