<svg xmlns="http://www.w3.org/2000/svg" width="89.076" height="69.002" viewBox="0 0 89.076 69.002">
  <defs>
    <style>
      .cls-1 {
        fill: #ee3a08;
      }
    </style>
  </defs>
  <g id="crane-truck" transform="translate(-1 -7.972)">
    <path id="Path_19" data-name="Path 19" class="cls-1" d="M88.64,49.677H42.665V36.971l7.719-20.378H80.019v2.873a2.876,2.876,0,0,0-2.873,2.873v5.747a2.876,2.876,0,0,0,2.873,2.873H80.1a7.823,7.823,0,0,0,2.376,4.73,1.437,1.437,0,0,1-.086,2.112,1.455,1.455,0,0,1-1.181.322,1.559,1.559,0,0,1-1.185-1.57V35.27H77.146v1.283a4.428,4.428,0,0,0,3.6,4.4,4.312,4.312,0,0,0,5.023-4.251A4.284,4.284,0,0,0,84.5,33.658a5.36,5.36,0,0,1-1.539-2.705,2.873,2.873,0,0,0,2.8-2.866V22.339a2.876,2.876,0,0,0-2.873-2.873V16.592a4.31,4.31,0,0,0,0-8.62H46.975v.075a5.232,5.232,0,0,0-.636-.075,4.98,4.98,0,0,0-4.471,2.7L31.057,28.806A2.871,2.871,0,0,0,28.3,26.69H18.588a5.779,5.779,0,0,0-4.063,1.684L5.557,37.341a5.711,5.711,0,0,0-1.684,4.064v4.227a4.284,4.284,0,0,0,0,8.09v7.448A5.753,5.753,0,0,0,9.62,66.917h4.31a1.436,1.436,0,0,0,1.437-1.437V64.044h2.6a8.629,8.629,0,1,0,15.945,2.873H37.2a4.287,4.287,0,0,0,8.066,0H47.1a8.62,8.62,0,1,0,16.982,0h1.7a8.468,8.468,0,0,0-.131,1.437,8.615,8.615,0,0,0,17.113,1.425h.168a4.323,4.323,0,0,0,4.27-4.31V58.3H88.64a1.436,1.436,0,0,0,1.437-1.437V51.114A1.436,1.436,0,0,0,88.64,49.677ZM82.894,28.086H80.019V22.339h2.873Zm-43.1,15.8h-8.62V36.706a4.31,4.31,0,0,1,8.62,0Zm0,2.873v2.873h-8.62V46.763Zm-8.62,5.787H33.49l2.873,2.873H31.171Zm9.255,2.873L37.553,52.55h3.121l2.873,2.873Zm7.184,0L44.736,52.55h3.121l2.873,2.873Zm7.184,0L51.92,52.55h3.121l2.873,2.873Zm7.184,0L59.1,52.55h3.121L65.1,55.424Zm7.184,0L66.287,52.55h3.121l2.873,2.873Zm7.184,0L73.471,52.55h3.121l2.873,2.873Zm7.985-43.142a1.438,1.438,0,0,1-1.437,1.437H51.318a4.94,4.94,0,0,0-.445-2.873h32.02A1.438,1.438,0,0,1,84.329,12.282Zm-39.944-.231a2.182,2.182,0,0,1,3.712-.312,2.132,2.132,0,0,1,.342,1.875L41.281,32.507a7.034,7.034,0,0,0-7.428-2.781Zm-25.8,17.512H28.3V55.424H21.378a4.3,4.3,0,0,1,4.046-2.873,1.436,1.436,0,0,0,1.437-1.437V32.436A1.436,1.436,0,0,0,25.428,31l-9.438-.029.566-.566A2.889,2.889,0,0,1,18.588,29.563ZM12.494,59.734H6.747V58.3h5.747Zm1.437-4.31H6.747V53.987H8.184A1.436,1.436,0,0,0,9.62,52.55V48.24H23.987v1.582a7.2,7.2,0,0,0-5.589,5.6ZM7.589,39.373l5.539-5.539,10.86.034v11.5H6.747V41.406A2.86,2.86,0,0,1,7.589,39.373ZM5.31,48.24H6.747v2.873H5.31a1.437,1.437,0,1,1,0-2.873Zm4.31,15.8a2.864,2.864,0,0,1-2.474-1.437h5.347v1.437ZM25.424,74.1a5.747,5.747,0,1,1,5.747-5.747A5.753,5.753,0,0,1,25.424,74.1Zm17.241-8.66a1.437,1.437,0,0,1-2.873,0V64h2.873ZM55.6,74.1a5.747,5.747,0,1,1,5.747-5.747A5.753,5.753,0,0,1,55.6,74.1Zm18.677,0a5.747,5.747,0,1,1,5.747-5.747A5.753,5.753,0,0,1,74.272,74.1Zm10.057-8.633A1.441,1.441,0,0,1,82.907,66.9h-.145a8.606,8.606,0,0,0-15.943-2.862h-3.77a8.6,8.6,0,0,0-14.907,0h-2.6V62.567A1.436,1.436,0,0,0,44.1,61.13H38.355a1.436,1.436,0,0,0-1.437,1.437v1.477h-4.04a8.6,8.6,0,0,0-12.209-2.873h-5.3V58.3H84.329ZM87.2,55.424H83.528L80.654,52.55H87.2Z" transform="translate(0 0)"/>
    <circle id="Ellipse_5" data-name="Ellipse 5" class="cls-1" cx="2.684" cy="2.684" r="2.684" transform="translate(22.648 66.237)"/>
    <circle id="Ellipse_6" data-name="Ellipse 6" class="cls-1" cx="2.684" cy="2.684" r="2.684" transform="translate(52.956 66.237)"/>
    <circle id="Ellipse_7" data-name="Ellipse 7" class="cls-1" cx="2.684" cy="2.684" r="2.684" transform="translate(72.628 66.237)"/>
    <path id="Path_20" data-name="Path 20" class="cls-1" d="M9,36.972h5.369v2.684H9Z" transform="translate(2.737 12.784)"/>
    <circle id="Ellipse_8" data-name="Ellipse 8" class="cls-1" cx="2.885" cy="2.885" r="2.885" transform="translate(32.308 33.357)"/>
  </g>
</svg>
