<svg xmlns="http://www.w3.org/2000/svg" width="101.042" height="60" viewBox="0 0 101.042 60">
  <defs>
    <style>
      .cls-1 {
        fill: #ee3a08;
      }
    </style>
  </defs>
  <g id="excavator" transform="translate(0 -12.998)">
    <path id="Path_5" data-name="Path 5" class="cls-1" d="M16.6,38a6.6,6.6,0,1,0,6.6,6.6A6.609,6.609,0,0,0,16.6,38Zm0,10.562A3.961,3.961,0,1,1,20.563,44.6,3.966,3.966,0,0,1,16.6,48.564Z" transform="translate(7.266 15.832)"/>
    <path id="Path_6" data-name="Path 6" class="cls-1" d="M39.6,38a6.6,6.6,0,1,0,6.6,6.6A6.609,6.609,0,0,0,39.6,38Zm0,10.562A3.961,3.961,0,1,1,43.556,44.6,3.966,3.966,0,0,1,39.6,48.564Z" transform="translate(20.256 15.832)"/>
    <path id="Path_7" data-name="Path 7" class="cls-1" d="M21.323,33.165H38.484a1.324,1.324,0,0,0,.467-.1c.021-.008.041-.013.062-.022s.04-.012.059-.021a1.185,1.185,0,0,0,.176-.137,1.3,1.3,0,0,0,.189-.148,1.236,1.236,0,0,0,.17-.251,1.2,1.2,0,0,0,.1-.17,1.377,1.377,0,0,0,.07-.345c0-.045.026-.084.026-.131,0-.009-.005-.018-.005-.028a1.3,1.3,0,0,0-.066-.327,1.432,1.432,0,0,0-.051-.186c-.007-.016-.005-.033-.013-.05L32.4,16.721a1.252,1.252,0,0,0-.149-.193,1.343,1.343,0,0,0-.131-.166,1.3,1.3,0,0,0-.277-.187,1.518,1.518,0,0,0-.143-.081,1.292,1.292,0,0,0-.383-.078c-.033,0-.063-.02-.1-.02h-.054c-.016,0-.029,0-.045,0h-9.8A1.32,1.32,0,0,0,20,17.316V31.845a1.317,1.317,0,0,0,1.319,1.32Zm9.082-14.525,5.941,11.885H26.6V18.641ZM23.96,30.525H22.643V18.639H23.96Z" transform="translate(13.16 0.96)"/>
    <path id="Path_8" data-name="Path 8" class="cls-1" d="M1.579,61.956c.017,0,.03-.009.046-.009H11.16A12.612,12.612,0,0,0,34.6,66.683H49.062A12.616,12.616,0,0,0,71.715,55.714l2.485.993,0,8.4c0,.014.008.025.008.038a1.547,1.547,0,0,0,.456,1.077L79.4,70.953a1.6,1.6,0,0,0,1.118.464H99.463a1.579,1.579,0,1,0,0-3.158h-.7L86.585,48.487c-.033-.051-.082-.081-.118-.126a1.475,1.475,0,0,0-.226-.24A1.718,1.718,0,0,0,86,47.959a1.536,1.536,0,0,0-.275-.123,1.552,1.552,0,0,0-.317-.065,1.521,1.521,0,0,0-.169-.033H76.085l-14.514-5.8,0-5.253c0-.017-.009-.032-.009-.047a1.576,1.576,0,0,0-.063-.316,1.7,1.7,0,0,0-.081-.3c-.008-.017-.006-.033-.014-.051L50.357,13.871a1.74,1.74,0,0,0-.141-.182,1.929,1.929,0,0,0-.717-.579,1.623,1.623,0,0,0-.338-.068A1.44,1.44,0,0,0,48.944,13H28.418a1.578,1.578,0,0,0-1.579,1.579V35.109H7.9a7.912,7.912,0,0,0-7.9,7.9V60.377a1.577,1.577,0,0,0,1.579,1.579Zm9.582-3.167h-8V57.216h8.309A12.582,12.582,0,0,0,11.16,58.789ZM23.682,69.84a9.473,9.473,0,1,1,9.473-9.473A9.482,9.482,0,0,1,23.682,69.84ZM30,16.157H47.968l10.448,20.9-.009,10.791a12.634,12.634,0,0,0-9.34,6.2H34.6a12.706,12.706,0,0,0-4.6-4.6Zm5.9,47.368a12.171,12.171,0,0,0,0-6.321H47.771a12.171,12.171,0,0,0,0,6.321ZM59.984,69.84a9.473,9.473,0,1,1,9.473-9.473A9.482,9.482,0,0,1,59.984,69.84Zm21.189-1.579L77.362,64.45l-.006-8.829a.171.171,0,0,0,0-.028l0-4.7h7.005l10.7,17.367H81.173ZM74.195,50.384l0,2.922L68.424,51a12.58,12.58,0,0,0-6.86-3.151l0-2.509ZM6.321,38.558v1.285a1.579,1.579,0,1,0,3.158,0V38.268h1.572v1.576a1.579,1.579,0,0,0,3.158,0V38.268h1.572v1.576a1.579,1.579,0,1,0,3.158,0V38.268h1.572v1.576a1.579,1.579,0,0,0,3.158,0V38.268h3.17v9.885a12.521,12.521,0,0,0-14.083,5.9h-9.6V43.009a4.735,4.735,0,0,1,3.164-4.451Z"/>
    <path id="Path_9" data-name="Path 9" class="cls-1" d="M22.625,32.642a1.32,1.32,0,1,0,0-2.641H21.3a1.32,1.32,0,1,0,0,2.641Z" transform="translate(11.82 10.085)"/>
  </g>
</svg>
