<svg xmlns="http://www.w3.org/2000/svg" width="61" height="61" viewBox="0 0 61 61">
  <defs>
    <style>
      .cls-1 {
        fill: #ee3a08;
        stroke: #ee3a08;
      }
    </style>
  </defs>
  <g id="map" transform="translate(0.5 0.5)">
    <path id="Path_36" data-name="Path 36" class="cls-1" d="M60,39.666V20.32a.958.958,0,0,0-.685-.918l-8.951-2.656a13.335,13.335,0,0,0,1.125-4.938,11.809,11.809,0,1,0-23.617,0A13.335,13.335,0,0,0,29,16.747l-8.678,2.575L1.23,13.658A.957.957,0,0,0,0,14.576V53.3a.957.957,0,0,0,.685.918l19.347,5.74.014,0,.009,0a.937.937,0,0,0,.109.024l.03,0a.873.873,0,0,0,.247,0l.03,0a.974.974,0,0,0,.11-.024l.009,0,.009,0,18.693-5.546a.952.952,0,0,0,.776,0l18.7,5.549A.958.958,0,0,0,60,59.043V39.673s0-.005,0-.008ZM58.085,21.035V38.4L40.638,33.222V30.5a55.529,55.529,0,0,0,8.92-11.994l8.527,2.53Zm-18.4-19.12a9.9,9.9,0,0,1,9.894,9.894,12.479,12.479,0,0,1-1.329,5.041.957.957,0,0,0-.1.208c-2.307,4.87-6.77,9.862-8.467,11.668-1.7-1.8-6.155-6.789-8.463-11.657a.957.957,0,0,0-.106-.227,12.474,12.474,0,0,1-1.324-5.032,9.9,9.9,0,0,1,9.894-9.894ZM38.723,30.5v2.723L21.276,38.4V21.035l8.527-2.53A55.528,55.528,0,0,0,38.723,30.5ZM1.915,35.22,8.53,37.182a.957.957,0,1,0,.545-1.836l-7.16-2.124V15.858l17.446,5.177V38.4l-6.615-1.963a.957.957,0,0,0-.545,1.836l7.16,2.124V57.76L1.915,52.583V35.22ZM40.638,52.583V45.652a.957.957,0,0,0-1.915,0v6.932L21.276,57.76V40.4L38.723,35.22v6.6a.957.957,0,1,0,1.915,0v-6.6L58.085,40.4V57.76Z"/>
    <path id="Path_37" data-name="Path 37" class="cls-1" d="M265.033,53.4a6.7,6.7,0,1,0-6.7-6.7A6.71,6.71,0,0,0,265.033,53.4Zm0-11.489a4.787,4.787,0,1,1-4.787,4.787A4.793,4.793,0,0,1,265.033,41.915Z" transform="translate(-225.353 -34.894)"/>
  </g>
</svg>
