<svg xmlns="http://www.w3.org/2000/svg" width="61" height="61" viewBox="0 0 61 61">
  <defs>
    <style>
      .cls-1 {
        fill: #ee3a08;
        stroke: #ee3a08;
      }
    </style>
  </defs>
  <g id="surface1" transform="translate(0.5 0.5)">
    <path id="Path_21" data-name="Path 21" class="cls-1" d="M50,10.594V5a5.006,5.006,0,0,0-5-5H5A5.006,5.006,0,0,0,0,5V27a4.99,4.99,0,0,0,4.484,4.948l3.759,9.758a5,5,0,0,0,6.463,2.868L38.18,35.532a14.456,14.456,0,0,0,1.245,12.835l.575.919V59a1,1,0,0,0,1,1H59a1,1,0,0,0,1-1V25.991a13.087,13.087,0,0,0-3.831-9.217Zm0,5.981,3.035,7.878a3,3,0,0,1-1.722,3.877L49.578,29A5,5,0,0,0,50,27ZM2,27V5A3,3,0,0,1,5,2H45a3,3,0,0,1,3,3v6.356h-.009l.009.023V27a3.042,3.042,0,0,1-.068.518l-9.16-9.161a5.335,5.335,0,0,0-7.7,7.378L34.977,30H5A3,3,0,0,1,2,27Zm12.811,5L7.7,34.738,6.648,32Zm-.824,10.708a3,3,0,0,1-3.878-1.721L8.422,36.6,20.359,32v-.006H36.81l1.3,1.417ZM58,58H42V50H58Zm0-10H41.555l-.434-.693A12.47,12.47,0,0,1,40.868,34.5a1,1,0,0,0-.131-1.172l-8.195-8.94a3.335,3.335,0,0,1,4.815-4.613L53.293,35.707l1.414-1.414-3.7-3.7,1.026-.4a5,5,0,0,0,2.867-6.46l-3.385-8.789,3.239,3.246A11.074,11.074,0,0,1,58,25.991Zm0,0"/>
    <path id="Path_22" data-name="Path 22" class="cls-1" d="M68.709,70.89a2.181,2.181,0,0,0,2.181-2.181V64.681A2.181,2.181,0,0,0,68.709,62.5H64.681A2.181,2.181,0,0,0,62.5,64.681v4.027a2.181,2.181,0,0,0,2.181,2.181Zm-4.531-2.181V67.534h1.678V65.856H64.178V64.681a.5.5,0,0,1,.5-.5h4.027a.5.5,0,0,1,.5.5v1.175H67.534v1.678h1.678v1.175a.5.5,0,0,1-.5.5H64.681A.5.5,0,0,1,64.178,68.709Zm0,0" transform="translate(-59.144 -59.144)"/>
    <path id="Path_23" data-name="Path 23" class="cls-1" d="M78.125,265.625h3.356V267.3H78.125Zm0,0" transform="translate(-73.93 -248.531)"/>
    <path id="Path_24" data-name="Path 24" class="cls-1" d="M78.125,359.375h3.356v1.678H78.125Zm0,0" transform="translate(-73.93 -336.247)"/>
    <path id="Path_25" data-name="Path 25" class="cls-1" d="M359.375,359.375h3.356v1.678h-3.356Zm0,0" transform="translate(-336.111 -336.247)"/>
    <path id="Path_26" data-name="Path 26" class="cls-1" d="M171.875,265.625h3.356V267.3h-3.356Zm0,0" transform="translate(-160.749 -248.531)"/>
    <path id="Path_27" data-name="Path 27" class="cls-1" d="M265.625,265.625h3.356V267.3h-3.356Zm0,0" transform="translate(-248.43 -248.531)"/>
    <path id="Path_28" data-name="Path 28" class="cls-1" d="M359.375,265.625h3.356V267.3h-3.356Zm0,0" transform="translate(-336.111 -248.531)"/>
    <path id="Path_29" data-name="Path 29" class="cls-1" d="M656.25,78.125h1.678v2.517H656.25Zm0,0" transform="translate(-614.017 -73.93)"/>
    <path id="Path_30" data-name="Path 30" class="cls-1" d="M593.75,78.125h1.678v2.517H593.75Zm0,0" transform="translate(-555.539 -73.93)"/>
    <path id="Path_31" data-name="Path 31" class="cls-1" d="M531.25,78.125h1.678v2.517H531.25Zm0,0" transform="translate(-497.061 -73.93)"/>
    <path id="Path_32" data-name="Path 32" class="cls-1" d="M468.75,78.125h1.678v2.517H468.75Zm0,0" transform="translate(-438.583 -73.93)"/>
    <path id="Path_33" data-name="Path 33" class="cls-1" d="M687.5,812.5h1.678v1.678H687.5Zm0,0" transform="translate(-643.256 -759.212)"/>
  </g>
</svg>
