<svg xmlns="http://www.w3.org/2000/svg" width="68.516" height="61" viewBox="0 0 68.516 61">
  <defs>
    <style>
      .cls-1 {
        fill: #ee3a08;
        stroke: #ee3a08;
      }
    </style>
  </defs>
  <g id="purse" transform="translate(0.5 -28)">
    <g id="Group_32" data-name="Group 32" transform="translate(0 28.499)">
      <g id="Group_31" data-name="Group 31" transform="translate(0 0)">
        <path id="Path_17" data-name="Path 17" class="cls-1" d="M64.549,53.553h-.988V40.036A6.271,6.271,0,0,0,57.3,33.773H30.135L11.811,28.537l-.016,0-.016,0-.033-.006-.051-.01-.046-.006L11.6,28.5h-.1l-.041,0-.056.006-.038.006-.057.012-.035.009-.057.018-.032.012-.057.024-.029.015c-.019.009-.037.019-.055.03l-.028.017-.052.035-.026.02c-.016.013-.032.025-.048.039l-.025.024c-.015.014-.029.027-.043.042l-.025.028c-.013.014-.025.029-.037.044l-.024.033c-.01.015-.021.029-.03.045s-.016.026-.023.04-.017.029-.024.045-.014.03-.021.045-.013.03-.019.045-.011.033-.017.049-.008.021-.011.032,0,.011,0,.016,0,.011,0,.016L9.449,33.772H6.264A6.271,6.271,0,0,0,0,40.015c0,.007,0,.014,0,.021V74.322a.989.989,0,0,0,1.978,0V44.6a6.239,6.239,0,0,0,4.286,1.7H57.3a4.291,4.291,0,0,1,4.282,4.286v6.924H50.7c-.029,0-.057,0-.085,0s-.063.007-.093.013l-.014,0c-.026.005-.051.012-.076.019l-.017,0c-.022.007-.044.015-.066.023l-.025.009-.053.025-.035.017-.04.023-.044.027-.028.02c-.017.012-.034.024-.05.037l-.02.018c-.017.015-.035.03-.051.046l-.027.03c-.013.014-.026.027-.038.042s-.04.051-.057.078h0l-5.274,7.912a.973.973,0,0,0-.093.174c-.009.023-.017.046-.024.069l-.007.021c-.007.024-.013.049-.018.074l0,.019c0,.022-.007.044-.01.067s0,.019,0,.029,0,.037,0,.055,0,.028,0,.042,0,.027,0,.041,0,.038,0,.056,0,.018,0,.027.006.045.01.068c0,.006,0,.012,0,.018.005.025.011.05.019.074l.007.021c.008.023.015.046.024.069a.985.985,0,0,0,.093.174l5.274,7.911h0a1.022,1.022,0,0,0,.069.09l.025.027q.025.027.052.053l.032.029c.019.016.039.032.06.047l.027.02a.986.986,0,0,0,.092.056l.024.012c.025.013.051.024.078.035l.031.011q.038.013.077.024l.032.008c.027.006.054.011.082.015l.03,0a.992.992,0,0,0,.1.006H61.583v6.924A4.291,4.291,0,0,1,57.3,86.521H6.265a4.291,4.291,0,0,1-4.286-4.286c0-.005,0-.01,0-.015v-7.9a.989.989,0,1,0-1.978,0v7.914c0,.01,0,.02,0,.03A6.271,6.271,0,0,0,6.265,88.5H57.3a6.271,6.271,0,0,0,6.264-6.263h0V75.311h.988a2.97,2.97,0,0,0,2.966-2.966V56.52A2.971,2.971,0,0,0,64.549,53.553ZM12.25,30.72,29.7,35.706h0l11.7,3.342H10.169Zm49.332,15.3a6.239,6.239,0,0,0-4.286-1.7H6.264a4.286,4.286,0,0,1,0-8.572h2.69l-.824,3.3H6.265a.989.989,0,1,0,0,1.978H55.977a.989.989,0,0,0,0-1.978H48.6l-11.542-3.3H57.3a4.291,4.291,0,0,1,4.286,4.286Zm3.955,26.32h0a.99.99,0,0,1-.988.988H51.232l-4.615-6.922,4.615-6.923H64.549l.041,0a2.956,2.956,0,0,0,.947-.169V72.344Zm-.988-14.836h-.988V55.531h.988a.988.988,0,0,1,0,1.977Z" transform="translate(0 -28.499)"/>
      </g>
    </g>
    <g id="Group_34" data-name="Group 34" transform="translate(55.49 64.059)">
      <g id="Group_33" data-name="Group 33">
        <path id="Path_18" data-name="Path 18" class="cls-1" d="M389.645,288.493a2.646,2.646,0,1,0,2.646,2.646A2.649,2.649,0,0,0,389.645,288.493Zm0,3.848a1.2,1.2,0,1,1,1.2-1.2A1.2,1.2,0,0,1,389.645,292.341Z" transform="translate(-386.999 -288.493)"/>
      </g>
    </g>
  </g>
</svg>
